%MOIN*%
%OFA0B0*%
%FSLAX34Y34*%
%IPPOS*%
%LPD*%
%AMOC8*
5,1,8,0,0,$1,22.5*%
%AMOC80*
5,1,8,0,0,$1,22.5*%
%AMOC81*
5,1,8,0,0,$1,22.5*%
%AMOC80*
5,1,8,0,0,$1,22.5*%
%AMOC81*
5,1,8,0,0,$1,22.5*%
%AMOC80*
5,1,8,0,0,$1,22.5*%
%AMOC81*
5,1,8,0,0,$1,22.5*%
%AMOC80*
5,1,8,0,0,$1,22.5*%
%AMOC81*
5,1,8,0,0,$1,22.5*%
%AMOC80*
5,1,8,0,0,$1,22.5*%
%AMOC81*
5,1,8,0,0,$1,22.5*%
%AMOC80*
5,1,8,0,0,$1,22.5*%
%AMOC81*
5,1,8,0,0,$1,22.5*%
%AMOC80*
5,1,8,0,0,$1,22.5*%
%ADD10R,0.1064251968503937X0.047370078740157487*%
%ADD11R,0.063118110236220479X0.13398425196850394*%
%ADD22R,0.1064251968503937X0.047370078740157487*%
%ADD23R,0.063118110236220479X0.13398425196850394*%
%ADD24R,0.1064251968503937X0.047370078740157487*%
%ADD25R,0.063118110236220479X0.13398425196850394*%
%ADD26R,0.1064251968503937X0.047370078740157487*%
%ADD27R,0.063118110236220479X0.13398425196850394*%
%ADD28R,0.1064251968503937X0.047370078740157487*%
%ADD29R,0.063118110236220479X0.13398425196850394*%
%ADD30R,0.1064251968503937X0.047370078740157487*%
%ADD31R,0.063118110236220479X0.13398425196850394*%
%ADD32R,0.1064251968503937X0.047370078740157487*%
%ADD33R,0.063118110236220479X0.13398425196850394*%
%ADD34R,0.1064251968503937X0.047370078740157487*%
%ADD35R,0.063118110236220479X0.13398425196850394*%
%ADD36R,0.1064251968503937X0.047370078740157487*%
%ADD37R,0.063118110236220479X0.13398425196850394*%
%ADD38R,0.1064251968503937X0.047370078740157487*%
%ADD39R,0.063118110236220479X0.13398425196850394*%
%ADD40R,0.1064251968503937X0.047370078740157487*%
%ADD41R,0.063118110236220479X0.13398425196850394*%
%ADD42R,0.1064251968503937X0.047370078740157487*%
%ADD43R,0.063118110236220479X0.13398425196850394*%
%ADD44R,0.1064251968503937X0.047370078740157487*%
%ADD45R,0.063118110236220479X0.13398425196850394*%
%ADD46R,0.1064251968503937X0.047370078740157487*%
%ADD47R,0.063118110236220479X0.13398425196850394*%
G75*
G01*
D10*
X0004724Y0004724D02*
X0003051Y0005610D03*
X0006397Y0005610D03*
X0003051Y0003838D03*
X0006397Y0003838D03*
D11*
X0003740Y0001870D03*
X0003740Y0007578D03*
X0005708Y0001870D03*
X0005708Y0007578D03*
G04 next file*
G04 EAGLE Gerber RS-274X export*
G75*
G01*
D22*
X0014960Y0004724D02*
X0013287Y0005610D03*
X0016633Y0005610D03*
X0013287Y0003838D03*
X0016633Y0003838D03*
D23*
X0013976Y0001870D03*
X0013976Y0007578D03*
X0015944Y0001870D03*
X0015944Y0007578D03*
G04 next file*
G04 EAGLE Gerber RS-274X export*
G75*
G01*
D24*
X0025196Y0004724D02*
X0023523Y0005610D03*
X0026870Y0005610D03*
X0023523Y0003838D03*
X0026870Y0003838D03*
D25*
X0024212Y0001870D03*
X0024212Y0007578D03*
X0026181Y0001870D03*
X0026181Y0007578D03*
G04 next file*
G04 EAGLE Gerber RS-274X export*
G75*
G01*
D26*
X0034251Y0009842D02*
X0032578Y0010728D03*
X0035925Y0010728D03*
X0032578Y0008956D03*
X0035925Y0008956D03*
D27*
X0033267Y0006988D03*
X0033267Y0012696D03*
X0035236Y0006988D03*
X0035236Y0012696D03*
G04 next file*
G04 EAGLE Gerber RS-274X export*
G75*
G01*
D28*
X0025196Y0014960D02*
X0023523Y0015846D03*
X0026870Y0015846D03*
X0023523Y0014074D03*
X0026870Y0014074D03*
D29*
X0024212Y0012106D03*
X0024212Y0017814D03*
X0026181Y0012106D03*
X0026181Y0017814D03*
G04 next file*
G04 EAGLE Gerber RS-274X export*
G75*
G01*
D30*
X0014960Y0014960D02*
X0013287Y0015846D03*
X0016633Y0015846D03*
X0013287Y0014074D03*
X0016633Y0014074D03*
D31*
X0013976Y0012106D03*
X0013976Y0017814D03*
X0015944Y0012106D03*
X0015944Y0017814D03*
G04 next file*
G04 EAGLE Gerber RS-274X export*
G75*
G01*
D32*
X0004724Y0014960D02*
X0003051Y0015846D03*
X0006397Y0015846D03*
X0003051Y0014074D03*
X0006397Y0014074D03*
D33*
X0003740Y0012106D03*
X0003740Y0017814D03*
X0005708Y0012106D03*
X0005708Y0017814D03*
G04 next file*
G04 EAGLE Gerber RS-274X export*
G75*
G01*
D34*
X0034251Y0020078D02*
X0032578Y0020964D03*
X0035925Y0020964D03*
X0032578Y0019192D03*
X0035925Y0019192D03*
D35*
X0033267Y0017224D03*
X0033267Y0022933D03*
X0035236Y0017224D03*
X0035236Y0022933D03*
G04 next file*
G04 EAGLE Gerber RS-274X export*
G75*
G01*
D36*
X0004724Y0025196D02*
X0003051Y0026082D03*
X0006397Y0026082D03*
X0003051Y0024311D03*
X0006397Y0024311D03*
D37*
X0003740Y0022342D03*
X0003740Y0028051D03*
X0005708Y0022342D03*
X0005708Y0028051D03*
G04 next file*
G04 EAGLE Gerber RS-274X export*
G75*
G01*
D38*
X0014960Y0025196D02*
X0013287Y0026082D03*
X0016633Y0026082D03*
X0013287Y0024311D03*
X0016633Y0024311D03*
D39*
X0013976Y0022342D03*
X0013976Y0028051D03*
X0015944Y0022342D03*
X0015944Y0028051D03*
G04 next file*
G04 EAGLE Gerber RS-274X export*
G75*
G01*
D40*
X0025196Y0025196D02*
X0023523Y0026082D03*
X0026870Y0026082D03*
X0023523Y0024311D03*
X0026870Y0024311D03*
D41*
X0024212Y0022342D03*
X0024212Y0028051D03*
X0026181Y0022342D03*
X0026181Y0028051D03*
G04 next file*
G04 EAGLE Gerber RS-274X export*
G75*
G01*
D42*
X0030708Y0033858D02*
X0029035Y0034744D03*
X0032381Y0034744D03*
X0029035Y0032972D03*
X0032381Y0032972D03*
D43*
X0029724Y0031003D03*
X0029724Y0036712D03*
X0031692Y0031003D03*
X0031692Y0036712D03*
G04 next file*
G04 EAGLE Gerber RS-274X export*
G75*
G01*
D44*
X0009842Y0034251D02*
X0008169Y0035137D03*
X0011515Y0035137D03*
X0008169Y0033366D03*
X0011515Y0033366D03*
D45*
X0008858Y0031397D03*
X0008858Y0037106D03*
X0010826Y0031397D03*
X0010826Y0037106D03*
G04 next file*
G04 EAGLE Gerber RS-274X export*
G75*
G01*
D46*
X0020472Y0034251D02*
X0018799Y0035137D03*
X0022145Y0035137D03*
X0018799Y0033366D03*
X0022145Y0033366D03*
D47*
X0019488Y0031397D03*
X0019488Y0037106D03*
X0021456Y0031397D03*
X0021456Y0037106D03*
M02*