%
M48
METRIC,000.000
T01C0.35
%
T01
X010730Y012000
X013270Y012000
X012000Y013270
X012000Y010730
X016250Y009750
X014540Y018350
X007750Y009750
X014540Y005650
X036730Y012000
X039270Y012000
X038000Y013270
X038000Y010730
X042250Y009750
X040540Y018350
X033750Y009750
X040540Y005650
X062730Y012000
X065269Y012000
X064000Y013270
X064000Y010730
X068250Y009750
X066540Y018350
X059750Y009750
X066540Y005650
X085730Y025000
X088270Y025000
X087000Y026270
X087000Y023730
X091250Y022750
X089540Y031350
X082750Y022750
X089540Y018650
X062730Y038000
X065269Y038000
X064000Y039270
X064000Y036730
X068250Y035750
X066540Y044350
X059750Y035750
X066540Y031650
X036730Y038000
X039270Y038000
X038000Y039270
X038000Y036730
X042250Y035750
X040540Y044350
X033750Y035750
X040540Y031650
X010730Y038000
X013270Y038000
X012000Y039270
X012000Y036730
X016250Y035750
X014540Y044350
X007750Y035750
X014540Y031650
X085730Y051000
X088270Y051000
X087000Y052270
X087000Y049730
X091250Y048750
X089540Y057350
X082750Y048750
X089540Y044650
X010730Y064000
X013270Y064000
X012000Y065269
X012000Y062730
X016250Y061750
X014540Y070350
X007750Y061750
X014540Y057650
X036730Y064000
X039270Y064000
X038000Y065269
X038000Y062730
X042250Y061750
X040540Y070350
X033750Y061750
X040540Y057650
X062730Y064000
X065269Y064000
X064000Y065269
X064000Y062730
X068250Y061750
X066540Y070350
X059750Y061750
X066540Y057650
X076730Y086000
X079270Y086000
X078000Y087270
X078000Y084730
X082250Y083750
X080540Y092350
X073750Y083750
X080540Y079650
X023730Y087000
X026270Y087000
X025000Y088270
X025000Y085730
X029250Y084750
X027540Y093350
X020750Y084750
X027540Y080650
X050730Y087000
X053270Y087000
X052000Y088270
X052000Y085730
X056250Y084750
X054540Y093350
X047750Y084750
X054540Y080650
M30