%MOIN*%
%OFA0B0*%
%FSLAX34Y34*%
%IPPOS*%
%LPD*%
%AMOC8*
5,1,8,0,0,$1,22.5*%
%AMOC80*
5,1,8,0,0,$1,22.5*%
%AMOC81*
5,1,8,0,0,$1,22.5*%
%AMOC80*
5,1,8,0,0,$1,22.5*%
%AMOC81*
5,1,8,0,0,$1,22.5*%
%AMOC80*
5,1,8,0,0,$1,22.5*%
%AMOC81*
5,1,8,0,0,$1,22.5*%
%AMOC80*
5,1,8,0,0,$1,22.5*%
%AMOC81*
5,1,8,0,0,$1,22.5*%
%AMOC80*
5,1,8,0,0,$1,22.5*%
%AMOC81*
5,1,8,0,0,$1,22.5*%
%AMOC80*
5,1,8,0,0,$1,22.5*%
%AMOC81*
5,1,8,0,0,$1,22.5*%
%AMOC80*
5,1,8,0,0,$1,22.5*%
%ADD10R,0.0984251968503937X0.03937007874015748*%
%ADD11R,0.055118110236220472X0.12598425196850396*%
%ADD12C,0.01968503937007874*%
%ADD13C,0.027559055118110236*%
%ADD24R,0.0984251968503937X0.03937007874015748*%
%ADD25R,0.055118110236220472X0.12598425196850396*%
%ADD26C,0.01968503937007874*%
%ADD27C,0.027559055118110236*%
%ADD28R,0.0984251968503937X0.03937007874015748*%
%ADD29R,0.055118110236220472X0.12598425196850396*%
%ADD30C,0.01968503937007874*%
%ADD31C,0.027559055118110236*%
%ADD32R,0.0984251968503937X0.03937007874015748*%
%ADD33R,0.055118110236220472X0.12598425196850396*%
%ADD34C,0.01968503937007874*%
%ADD35C,0.027559055118110236*%
%ADD36R,0.0984251968503937X0.03937007874015748*%
%ADD37R,0.055118110236220472X0.12598425196850396*%
%ADD38C,0.01968503937007874*%
%ADD39C,0.027559055118110236*%
%ADD40R,0.0984251968503937X0.03937007874015748*%
%ADD41R,0.055118110236220472X0.12598425196850396*%
%ADD42C,0.01968503937007874*%
%ADD43C,0.027559055118110236*%
%ADD44R,0.0984251968503937X0.03937007874015748*%
%ADD45R,0.055118110236220472X0.12598425196850396*%
%ADD46C,0.01968503937007874*%
%ADD47C,0.027559055118110236*%
%ADD48R,0.0984251968503937X0.03937007874015748*%
%ADD49R,0.055118110236220472X0.12598425196850396*%
%ADD50C,0.01968503937007874*%
%ADD51C,0.027559055118110236*%
%ADD52R,0.0984251968503937X0.03937007874015748*%
%ADD53R,0.055118110236220472X0.12598425196850396*%
%ADD54C,0.01968503937007874*%
%ADD55C,0.027559055118110236*%
%ADD56R,0.0984251968503937X0.03937007874015748*%
%ADD57R,0.055118110236220472X0.12598425196850396*%
%ADD58C,0.01968503937007874*%
%ADD59C,0.027559055118110236*%
%ADD60R,0.0984251968503937X0.03937007874015748*%
%ADD61R,0.055118110236220472X0.12598425196850396*%
%ADD62C,0.01968503937007874*%
%ADD63C,0.027559055118110236*%
%ADD64R,0.0984251968503937X0.03937007874015748*%
%ADD65R,0.055118110236220472X0.12598425196850396*%
%ADD66C,0.01968503937007874*%
%ADD67C,0.027559055118110236*%
%ADD68R,0.0984251968503937X0.03937007874015748*%
%ADD69R,0.055118110236220472X0.12598425196850396*%
%ADD70C,0.01968503937007874*%
%ADD71C,0.027559055118110236*%
%ADD72R,0.0984251968503937X0.03937007874015748*%
%ADD73R,0.055118110236220472X0.12598425196850396*%
%ADD74C,0.01968503937007874*%
%ADD75C,0.027559055118110236*%
G75*
G01*
D10*
X0004724Y0004724D02*
X0003051Y0005610D03*
X0006397Y0005610D03*
X0003051Y0003838D03*
X0006397Y0003838D03*
D11*
X0003740Y0001870D03*
X0003740Y0007578D03*
X0005708Y0001870D03*
X0005708Y0007578D03*
D12*
X0003740Y0002240D02*
X0003740Y0001870D01*
X0003740Y0002240D02*
X0004724Y0003224D01*
X0003338Y0005610D02*
X0003051Y0005610D01*
X0003338Y0005610D02*
X0004224Y0004724D01*
X0006110Y0005610D02*
X0006397Y0005610D01*
X0006110Y0005610D02*
X0005224Y0004724D01*
X0003740Y0007208D02*
X0003740Y0007578D01*
X0003740Y0007208D02*
X0004724Y0006224D01*
D13*
X0004224Y0004724D03*
X0005224Y0004724D03*
D12*
X0004724Y0005224D02*
X0004724Y0006224D01*
D13*
X0004724Y0005224D03*
D12*
X0004724Y0004224D02*
X0004724Y0003224D01*
D13*
X0004724Y0004224D03*
X0006397Y0003838D03*
D12*
X0005724Y0007562D02*
X0005708Y0007578D01*
X0005724Y0007562D02*
X0005724Y0007224D01*
D13*
X0005724Y0007224D03*
X0003051Y0003838D03*
D12*
X0005708Y0002208D02*
X0005708Y0001870D01*
X0005708Y0002208D02*
X0005724Y0002224D01*
D13*
X0005724Y0002224D03*
G04 next file*
G04 EAGLE Gerber RS-274X export*
G75*
G01*
D24*
X0014960Y0004724D02*
X0013287Y0005610D03*
X0016633Y0005610D03*
X0013287Y0003838D03*
X0016633Y0003838D03*
D25*
X0013976Y0001870D03*
X0013976Y0007578D03*
X0015944Y0001870D03*
X0015944Y0007578D03*
D26*
X0013976Y0002240D02*
X0013976Y0001870D01*
X0013976Y0002240D02*
X0014960Y0003224D01*
X0013574Y0005610D02*
X0013287Y0005610D01*
X0013574Y0005610D02*
X0014460Y0004724D01*
X0016346Y0005610D02*
X0016633Y0005610D01*
X0016346Y0005610D02*
X0015460Y0004724D01*
X0013976Y0007208D02*
X0013976Y0007578D01*
X0013976Y0007208D02*
X0014960Y0006224D01*
D27*
X0014460Y0004724D03*
X0015460Y0004724D03*
D26*
X0014960Y0005224D02*
X0014960Y0006224D01*
D27*
X0014960Y0005224D03*
D26*
X0014960Y0004224D02*
X0014960Y0003224D01*
D27*
X0014960Y0004224D03*
X0016633Y0003838D03*
D26*
X0015960Y0007562D02*
X0015944Y0007578D01*
X0015960Y0007562D02*
X0015960Y0007224D01*
D27*
X0015960Y0007224D03*
X0013287Y0003838D03*
D26*
X0015944Y0002208D02*
X0015944Y0001870D01*
X0015944Y0002208D02*
X0015960Y0002224D01*
D27*
X0015960Y0002224D03*
G04 next file*
G04 EAGLE Gerber RS-274X export*
G75*
G01*
D28*
X0025196Y0004724D02*
X0023523Y0005610D03*
X0026870Y0005610D03*
X0023523Y0003838D03*
X0026870Y0003838D03*
D29*
X0024212Y0001870D03*
X0024212Y0007578D03*
X0026181Y0001870D03*
X0026181Y0007578D03*
D30*
X0024212Y0002240D02*
X0024212Y0001870D01*
X0024212Y0002240D02*
X0025196Y0003224D01*
X0023811Y0005610D02*
X0023523Y0005610D01*
X0023811Y0005610D02*
X0024696Y0004724D01*
X0026582Y0005610D02*
X0026870Y0005610D01*
X0026582Y0005610D02*
X0025696Y0004724D01*
X0024212Y0007208D02*
X0024212Y0007578D01*
X0024212Y0007208D02*
X0025196Y0006224D01*
D31*
X0024696Y0004724D03*
X0025696Y0004724D03*
D30*
X0025196Y0005224D02*
X0025196Y0006224D01*
D31*
X0025196Y0005224D03*
D30*
X0025196Y0004224D02*
X0025196Y0003224D01*
D31*
X0025196Y0004224D03*
X0026870Y0003838D03*
D30*
X0026196Y0007562D02*
X0026181Y0007578D01*
X0026196Y0007562D02*
X0026196Y0007224D01*
D31*
X0026196Y0007224D03*
X0023523Y0003838D03*
D30*
X0026181Y0002208D02*
X0026181Y0001870D01*
X0026181Y0002208D02*
X0026196Y0002224D01*
D31*
X0026196Y0002224D03*
G04 next file*
G04 EAGLE Gerber RS-274X export*
G75*
G01*
D32*
X0034251Y0009842D02*
X0032578Y0010728D03*
X0035925Y0010728D03*
X0032578Y0008956D03*
X0035925Y0008956D03*
D33*
X0033267Y0006988D03*
X0033267Y0012696D03*
X0035236Y0006988D03*
X0035236Y0012696D03*
D34*
X0033267Y0007358D02*
X0033267Y0006988D01*
X0033267Y0007358D02*
X0034251Y0008342D01*
X0032866Y0010728D02*
X0032578Y0010728D01*
X0032866Y0010728D02*
X0033751Y0009842D01*
X0035637Y0010728D02*
X0035925Y0010728D01*
X0035637Y0010728D02*
X0034751Y0009842D01*
X0033267Y0012326D02*
X0033267Y0012696D01*
X0033267Y0012326D02*
X0034251Y0011342D01*
D35*
X0033751Y0009842D03*
X0034751Y0009842D03*
D34*
X0034251Y0010342D02*
X0034251Y0011342D01*
D35*
X0034251Y0010342D03*
D34*
X0034251Y0009342D02*
X0034251Y0008342D01*
D35*
X0034251Y0009342D03*
X0035925Y0008956D03*
D34*
X0035251Y0012681D02*
X0035236Y0012696D01*
X0035251Y0012681D02*
X0035251Y0012342D01*
D35*
X0035251Y0012342D03*
X0032578Y0008956D03*
D34*
X0035236Y0007326D02*
X0035236Y0006988D01*
X0035236Y0007326D02*
X0035251Y0007342D01*
D35*
X0035251Y0007342D03*
G04 next file*
G04 EAGLE Gerber RS-274X export*
G75*
G01*
D36*
X0025196Y0014960D02*
X0023523Y0015846D03*
X0026870Y0015846D03*
X0023523Y0014074D03*
X0026870Y0014074D03*
D37*
X0024212Y0012106D03*
X0024212Y0017814D03*
X0026181Y0012106D03*
X0026181Y0017814D03*
D38*
X0024212Y0012476D02*
X0024212Y0012106D01*
X0024212Y0012476D02*
X0025196Y0013460D01*
X0023811Y0015846D02*
X0023523Y0015846D01*
X0023811Y0015846D02*
X0024696Y0014960D01*
X0026582Y0015846D02*
X0026870Y0015846D01*
X0026582Y0015846D02*
X0025696Y0014960D01*
X0024212Y0017444D02*
X0024212Y0017814D01*
X0024212Y0017444D02*
X0025196Y0016460D01*
D39*
X0024696Y0014960D03*
X0025696Y0014960D03*
D38*
X0025196Y0015460D02*
X0025196Y0016460D01*
D39*
X0025196Y0015460D03*
D38*
X0025196Y0014460D02*
X0025196Y0013460D01*
D39*
X0025196Y0014460D03*
X0026870Y0014074D03*
D38*
X0026196Y0017799D02*
X0026181Y0017814D01*
X0026196Y0017799D02*
X0026196Y0017460D01*
D39*
X0026196Y0017460D03*
X0023523Y0014074D03*
D38*
X0026181Y0012444D02*
X0026181Y0012106D01*
X0026181Y0012444D02*
X0026196Y0012460D01*
D39*
X0026196Y0012460D03*
G04 next file*
G04 EAGLE Gerber RS-274X export*
G75*
G01*
D40*
X0014960Y0014960D02*
X0013287Y0015846D03*
X0016633Y0015846D03*
X0013287Y0014074D03*
X0016633Y0014074D03*
D41*
X0013976Y0012106D03*
X0013976Y0017814D03*
X0015944Y0012106D03*
X0015944Y0017814D03*
D42*
X0013976Y0012476D02*
X0013976Y0012106D01*
X0013976Y0012476D02*
X0014960Y0013460D01*
X0013574Y0015846D02*
X0013287Y0015846D01*
X0013574Y0015846D02*
X0014460Y0014960D01*
X0016346Y0015846D02*
X0016633Y0015846D01*
X0016346Y0015846D02*
X0015460Y0014960D01*
X0013976Y0017444D02*
X0013976Y0017814D01*
X0013976Y0017444D02*
X0014960Y0016460D01*
D43*
X0014460Y0014960D03*
X0015460Y0014960D03*
D42*
X0014960Y0015460D02*
X0014960Y0016460D01*
D43*
X0014960Y0015460D03*
D42*
X0014960Y0014460D02*
X0014960Y0013460D01*
D43*
X0014960Y0014460D03*
X0016633Y0014074D03*
D42*
X0015960Y0017799D02*
X0015944Y0017814D01*
X0015960Y0017799D02*
X0015960Y0017460D01*
D43*
X0015960Y0017460D03*
X0013287Y0014074D03*
D42*
X0015944Y0012444D02*
X0015944Y0012106D01*
X0015944Y0012444D02*
X0015960Y0012460D01*
D43*
X0015960Y0012460D03*
G04 next file*
G04 EAGLE Gerber RS-274X export*
G75*
G01*
D44*
X0004724Y0014960D02*
X0003051Y0015846D03*
X0006397Y0015846D03*
X0003051Y0014074D03*
X0006397Y0014074D03*
D45*
X0003740Y0012106D03*
X0003740Y0017814D03*
X0005708Y0012106D03*
X0005708Y0017814D03*
D46*
X0003740Y0012476D02*
X0003740Y0012106D01*
X0003740Y0012476D02*
X0004724Y0013460D01*
X0003338Y0015846D02*
X0003051Y0015846D01*
X0003338Y0015846D02*
X0004224Y0014960D01*
X0006110Y0015846D02*
X0006397Y0015846D01*
X0006110Y0015846D02*
X0005224Y0014960D01*
X0003740Y0017444D02*
X0003740Y0017814D01*
X0003740Y0017444D02*
X0004724Y0016460D01*
D47*
X0004224Y0014960D03*
X0005224Y0014960D03*
D46*
X0004724Y0015460D02*
X0004724Y0016460D01*
D47*
X0004724Y0015460D03*
D46*
X0004724Y0014460D02*
X0004724Y0013460D01*
D47*
X0004724Y0014460D03*
X0006397Y0014074D03*
D46*
X0005724Y0017799D02*
X0005708Y0017814D01*
X0005724Y0017799D02*
X0005724Y0017460D01*
D47*
X0005724Y0017460D03*
X0003051Y0014074D03*
D46*
X0005708Y0012444D02*
X0005708Y0012106D01*
X0005708Y0012444D02*
X0005724Y0012460D01*
D47*
X0005724Y0012460D03*
G04 next file*
G04 EAGLE Gerber RS-274X export*
G75*
G01*
D48*
X0034251Y0020078D02*
X0032578Y0020964D03*
X0035925Y0020964D03*
X0032578Y0019192D03*
X0035925Y0019192D03*
D49*
X0033267Y0017224D03*
X0033267Y0022933D03*
X0035236Y0017224D03*
X0035236Y0022933D03*
D50*
X0033267Y0017594D02*
X0033267Y0017224D01*
X0033267Y0017594D02*
X0034251Y0018578D01*
X0032866Y0020964D02*
X0032578Y0020964D01*
X0032866Y0020964D02*
X0033751Y0020078D01*
X0035637Y0020964D02*
X0035925Y0020964D01*
X0035637Y0020964D02*
X0034751Y0020078D01*
X0033267Y0022562D02*
X0033267Y0022933D01*
X0033267Y0022562D02*
X0034251Y0021578D01*
D51*
X0033751Y0020078D03*
X0034751Y0020078D03*
D50*
X0034251Y0020578D02*
X0034251Y0021578D01*
D51*
X0034251Y0020578D03*
D50*
X0034251Y0019578D02*
X0034251Y0018578D01*
D51*
X0034251Y0019578D03*
X0035925Y0019192D03*
D50*
X0035251Y0022917D02*
X0035236Y0022933D01*
X0035251Y0022917D02*
X0035251Y0022578D01*
D51*
X0035251Y0022578D03*
X0032578Y0019192D03*
D50*
X0035236Y0017562D02*
X0035236Y0017224D01*
X0035236Y0017562D02*
X0035251Y0017578D01*
D51*
X0035251Y0017578D03*
G04 next file*
G04 EAGLE Gerber RS-274X export*
G75*
G01*
D52*
X0004724Y0025196D02*
X0003051Y0026082D03*
X0006397Y0026082D03*
X0003051Y0024311D03*
X0006397Y0024311D03*
D53*
X0003740Y0022342D03*
X0003740Y0028051D03*
X0005708Y0022342D03*
X0005708Y0028051D03*
D54*
X0003740Y0022712D02*
X0003740Y0022342D01*
X0003740Y0022712D02*
X0004724Y0023696D01*
X0003338Y0026082D02*
X0003051Y0026082D01*
X0003338Y0026082D02*
X0004224Y0025196D01*
X0006110Y0026082D02*
X0006397Y0026082D01*
X0006110Y0026082D02*
X0005224Y0025196D01*
X0003740Y0027681D02*
X0003740Y0028051D01*
X0003740Y0027681D02*
X0004724Y0026696D01*
D55*
X0004224Y0025196D03*
X0005224Y0025196D03*
D54*
X0004724Y0025696D02*
X0004724Y0026696D01*
D55*
X0004724Y0025696D03*
D54*
X0004724Y0024696D02*
X0004724Y0023696D01*
D55*
X0004724Y0024696D03*
X0006397Y0024311D03*
D54*
X0005724Y0028035D02*
X0005708Y0028051D01*
X0005724Y0028035D02*
X0005724Y0027696D01*
D55*
X0005724Y0027696D03*
X0003051Y0024311D03*
D54*
X0005708Y0022681D02*
X0005708Y0022342D01*
X0005708Y0022681D02*
X0005724Y0022696D01*
D55*
X0005724Y0022696D03*
G04 next file*
G04 EAGLE Gerber RS-274X export*
G75*
G01*
D56*
X0014960Y0025196D02*
X0013287Y0026082D03*
X0016633Y0026082D03*
X0013287Y0024311D03*
X0016633Y0024311D03*
D57*
X0013976Y0022342D03*
X0013976Y0028051D03*
X0015944Y0022342D03*
X0015944Y0028051D03*
D58*
X0013976Y0022712D02*
X0013976Y0022342D01*
X0013976Y0022712D02*
X0014960Y0023696D01*
X0013574Y0026082D02*
X0013287Y0026082D01*
X0013574Y0026082D02*
X0014460Y0025196D01*
X0016346Y0026082D02*
X0016633Y0026082D01*
X0016346Y0026082D02*
X0015460Y0025196D01*
X0013976Y0027681D02*
X0013976Y0028051D01*
X0013976Y0027681D02*
X0014960Y0026696D01*
D59*
X0014460Y0025196D03*
X0015460Y0025196D03*
D58*
X0014960Y0025696D02*
X0014960Y0026696D01*
D59*
X0014960Y0025696D03*
D58*
X0014960Y0024696D02*
X0014960Y0023696D01*
D59*
X0014960Y0024696D03*
X0016633Y0024311D03*
D58*
X0015960Y0028035D02*
X0015944Y0028051D01*
X0015960Y0028035D02*
X0015960Y0027696D01*
D59*
X0015960Y0027696D03*
X0013287Y0024311D03*
D58*
X0015944Y0022681D02*
X0015944Y0022342D01*
X0015944Y0022681D02*
X0015960Y0022696D01*
D59*
X0015960Y0022696D03*
G04 next file*
G04 EAGLE Gerber RS-274X export*
G75*
G01*
D60*
X0025196Y0025196D02*
X0023523Y0026082D03*
X0026870Y0026082D03*
X0023523Y0024311D03*
X0026870Y0024311D03*
D61*
X0024212Y0022342D03*
X0024212Y0028051D03*
X0026181Y0022342D03*
X0026181Y0028051D03*
D62*
X0024212Y0022712D02*
X0024212Y0022342D01*
X0024212Y0022712D02*
X0025196Y0023696D01*
X0023811Y0026082D02*
X0023523Y0026082D01*
X0023811Y0026082D02*
X0024696Y0025196D01*
X0026582Y0026082D02*
X0026870Y0026082D01*
X0026582Y0026082D02*
X0025696Y0025196D01*
X0024212Y0027681D02*
X0024212Y0028051D01*
X0024212Y0027681D02*
X0025196Y0026696D01*
D63*
X0024696Y0025196D03*
X0025696Y0025196D03*
D62*
X0025196Y0025696D02*
X0025196Y0026696D01*
D63*
X0025196Y0025696D03*
D62*
X0025196Y0024696D02*
X0025196Y0023696D01*
D63*
X0025196Y0024696D03*
X0026870Y0024311D03*
D62*
X0026196Y0028035D02*
X0026181Y0028051D01*
X0026196Y0028035D02*
X0026196Y0027696D01*
D63*
X0026196Y0027696D03*
X0023523Y0024311D03*
D62*
X0026181Y0022681D02*
X0026181Y0022342D01*
X0026181Y0022681D02*
X0026196Y0022696D01*
D63*
X0026196Y0022696D03*
G04 next file*
G04 EAGLE Gerber RS-274X export*
G75*
G01*
D64*
X0030708Y0033858D02*
X0029035Y0034744D03*
X0032381Y0034744D03*
X0029035Y0032972D03*
X0032381Y0032972D03*
D65*
X0029724Y0031003D03*
X0029724Y0036712D03*
X0031692Y0031003D03*
X0031692Y0036712D03*
D66*
X0029724Y0031374D02*
X0029724Y0031003D01*
X0029724Y0031374D02*
X0030708Y0032358D01*
X0029322Y0034744D02*
X0029035Y0034744D01*
X0029322Y0034744D02*
X0030208Y0033858D01*
X0032094Y0034744D02*
X0032381Y0034744D01*
X0032094Y0034744D02*
X0031208Y0033858D01*
X0029724Y0036342D02*
X0029724Y0036712D01*
X0029724Y0036342D02*
X0030708Y0035358D01*
D67*
X0030208Y0033858D03*
X0031208Y0033858D03*
D66*
X0030708Y0034358D02*
X0030708Y0035358D01*
D67*
X0030708Y0034358D03*
D66*
X0030708Y0033358D02*
X0030708Y0032358D01*
D67*
X0030708Y0033358D03*
X0032381Y0032972D03*
D66*
X0031708Y0036696D02*
X0031692Y0036712D01*
X0031708Y0036696D02*
X0031708Y0036358D01*
D67*
X0031708Y0036358D03*
X0029035Y0032972D03*
D66*
X0031692Y0031342D02*
X0031692Y0031003D01*
X0031692Y0031342D02*
X0031708Y0031358D01*
D67*
X0031708Y0031358D03*
G04 next file*
G04 EAGLE Gerber RS-274X export*
G75*
G01*
D68*
X0009842Y0034251D02*
X0008169Y0035137D03*
X0011515Y0035137D03*
X0008169Y0033366D03*
X0011515Y0033366D03*
D69*
X0008858Y0031397D03*
X0008858Y0037106D03*
X0010826Y0031397D03*
X0010826Y0037106D03*
D70*
X0008858Y0031767D02*
X0008858Y0031397D01*
X0008858Y0031767D02*
X0009842Y0032751D01*
X0008456Y0035137D02*
X0008169Y0035137D01*
X0008456Y0035137D02*
X0009342Y0034251D01*
X0011228Y0035137D02*
X0011515Y0035137D01*
X0011228Y0035137D02*
X0010342Y0034251D01*
X0008858Y0036736D02*
X0008858Y0037106D01*
X0008858Y0036736D02*
X0009842Y0035751D01*
D71*
X0009342Y0034251D03*
X0010342Y0034251D03*
D70*
X0009842Y0034751D02*
X0009842Y0035751D01*
D71*
X0009842Y0034751D03*
D70*
X0009842Y0033751D02*
X0009842Y0032751D01*
D71*
X0009842Y0033751D03*
X0011515Y0033366D03*
D70*
X0010842Y0037090D02*
X0010826Y0037106D01*
X0010842Y0037090D02*
X0010842Y0036751D01*
D71*
X0010842Y0036751D03*
X0008169Y0033366D03*
D70*
X0010826Y0031736D02*
X0010826Y0031397D01*
X0010826Y0031736D02*
X0010842Y0031751D01*
D71*
X0010842Y0031751D03*
G04 next file*
G04 EAGLE Gerber RS-274X export*
G75*
G01*
D72*
X0020472Y0034251D02*
X0018799Y0035137D03*
X0022145Y0035137D03*
X0018799Y0033366D03*
X0022145Y0033366D03*
D73*
X0019488Y0031397D03*
X0019488Y0037106D03*
X0021456Y0031397D03*
X0021456Y0037106D03*
D74*
X0019488Y0031767D02*
X0019488Y0031397D01*
X0019488Y0031767D02*
X0020472Y0032751D01*
X0019086Y0035137D02*
X0018799Y0035137D01*
X0019086Y0035137D02*
X0019972Y0034251D01*
X0021858Y0035137D02*
X0022145Y0035137D01*
X0021858Y0035137D02*
X0020972Y0034251D01*
X0019488Y0036736D02*
X0019488Y0037106D01*
X0019488Y0036736D02*
X0020472Y0035751D01*
D75*
X0019972Y0034251D03*
X0020972Y0034251D03*
D74*
X0020472Y0034751D02*
X0020472Y0035751D01*
D75*
X0020472Y0034751D03*
D74*
X0020472Y0033751D02*
X0020472Y0032751D01*
D75*
X0020472Y0033751D03*
X0022145Y0033366D03*
D74*
X0021472Y0037090D02*
X0021456Y0037106D01*
X0021472Y0037090D02*
X0021472Y0036751D01*
D75*
X0021472Y0036751D03*
X0018799Y0033366D03*
D74*
X0021456Y0031736D02*
X0021456Y0031397D01*
X0021456Y0031736D02*
X0021472Y0031751D01*
D75*
X0021472Y0031751D03*
M02*