%
M48
METRIC,000.000
T01C0.50
%
T01
X018904Y074119
X018055Y074649
X017167Y075106
X016244Y075491
X015293Y075799
X016921Y077790
X017699Y077162
X018526Y076600
X019395Y076106
X020302Y075685
X014320Y050029
X013331Y050177
X012334Y050245
X011334Y050232
X010339Y050137
X009355Y049961
X013150Y051803
X014140Y051938
X009203Y052073
X010185Y051885
X011179Y051776
X014320Y024029
X013331Y024177
X012334Y024245
X011334Y024232
X010339Y024137
X009355Y023961
X013150Y025803
X014140Y025938
X009203Y026073
X010185Y025885
X011179Y025776
X040320Y024029
X039331Y024177
X038334Y024245
X037334Y024232
X036339Y024137
X035355Y023961
X039150Y025803
X040140Y025938
X035203Y026073
X036185Y025885
X037179Y025776
X024072Y009918
X024202Y010910
X024250Y011908
X024216Y012907
X024101Y013900
X026019Y014558
X025851Y013573
X025763Y012577
X025756Y011577
X025831Y010580
X025988Y009593
X026019Y040558
X025851Y039573
X025763Y038577
X025756Y037577
X025831Y036580
X025988Y035593
X024072Y035918
X024202Y036910
X024250Y037908
X024216Y038907
X024101Y039900
X024072Y061918
X024202Y062910
X024250Y063908
X024216Y064907
X024101Y065900
X026019Y066558
X025851Y065573
X025763Y064577
X025756Y063577
X025831Y062580
X025988Y061593
X040320Y050029
X039331Y050177
X038334Y050245
X037334Y050232
X036339Y050137
X035355Y049961
X039150Y051803
X040140Y051938
X035203Y052073
X036185Y051885
X037179Y051776
X050072Y009918
X050202Y010910
X050250Y011908
X050216Y012907
X050101Y013900
X049906Y014881
X052019Y014558
X051851Y013573
X051763Y012577
X051756Y011577
X051831Y010580
X051988Y009593
X066320Y024029
X065331Y024177
X064334Y024245
X063334Y024232
X062339Y024137
X065150Y025803
X066140Y025938
X062185Y025885
X063179Y025776
X066320Y050029
X065331Y050177
X064334Y050245
X063334Y050232
X062339Y050137
X065150Y051803
X066140Y051938
X062185Y051885
X063179Y051776
X052019Y040558
X051851Y039573
X051763Y038577
X051756Y037577
X051831Y036580
X051988Y035593
X050072Y035918
X050202Y036910
X050250Y037908
X050216Y038907
X050101Y039900
X045705Y073522
X044904Y074119
X044055Y074649
X043167Y075106
X042244Y075491
X043921Y077790
X044699Y077162
X045526Y076600
X046395Y076106
X047302Y075685
X037202Y085910
X037250Y086908
X037216Y087907
X037101Y088900
X036906Y089881
X040019Y089558
X039851Y088573
X039763Y087577
X039756Y086577
X033446Y075372
X032534Y074963
X031658Y074481
X030825Y073929
X030039Y073311
X029306Y072631
X028117Y075153
X029072Y075446
X030001Y075816
X030896Y076262
X031752Y076778
X032563Y077363
X059446Y075372
X058534Y074963
X057658Y074481
X056825Y073929
X056039Y073311
X055117Y075153
X056072Y075446
X057001Y075816
X057896Y076262
X058752Y076778
X059563Y077363
X072456Y072862
X071705Y073522
X070904Y074119
X070055Y074649
X069167Y075106
X068244Y075491
X069921Y076790
X070699Y076162
X071526Y075600
X072395Y075106
X073302Y074685
X066267Y089527
X066019Y088558
X065851Y087573
X065763Y086577
X065756Y085577
X065831Y084580
X064072Y084918
X064202Y085910
X064250Y086908
X064216Y087907
X064101Y088900
X077631Y058893
X077019Y058103
X076473Y057265
X075997Y056386
X075595Y055471
X073673Y056484
X074254Y057298
X074767Y058156
X075207Y059054
X075573Y059984
X075862Y060941
X075906Y040881
X075632Y041842
X075279Y042778
X074852Y043681
X074353Y044548
X073785Y045370
X075539Y046673
X075929Y045752
X076394Y044868
X076930Y044023
X077532Y043226
X078197Y042479
X089320Y037029
X088331Y037177
X087334Y037245
X086334Y037232
X085339Y037137
X084355Y036961
X088150Y038803
X089140Y038938
X084203Y039073
X085185Y038885
X086179Y038776
X075906Y014881
X075632Y015842
X075279Y016778
X074852Y017681
X074353Y018548
X073785Y019370
X075929Y019752
X076394Y018868
X076930Y018023
X077532Y017226
X078197Y016479
X077631Y032893
X077019Y032103
X076473Y031265
X075997Y030386
X075595Y029471
X073673Y030484
X074254Y031298
X074767Y032156
X075207Y033054
X075573Y033984
X075862Y034941
M30